<mxfile host="app.diagrams.net" modified="2021-10-09T10:12:49.016Z" agent="5.0 (Windows NT 10.0; Win64; x64) AppleWebKit/537.36 (KHTML, like Gecko) Chrome/94.0.4606.71 Safari/537.36" etag="lQqqpGun6nJKAX06vyMR" version="15.4.3" type="github">
  <diagram id="R2lEEEUBdFMjLlhIrx00" name="Page-1">
    <mxGraphModel dx="1718" dy="1550" grid="1" gridSize="10" guides="1" tooltips="1" connect="1" arrows="1" fold="1" page="1" pageScale="1" pageWidth="850" pageHeight="1100" math="0" shadow="0" extFonts="Permanent Marker^https://fonts.googleapis.com/css?family=Permanent+Marker">
      <root>
        <mxCell id="0" />
        <mxCell id="1" parent="0" />
        <mxCell id="5UGPcmuwCr6wUo15yj4Q-1" value="Student" style="shape=table;startSize=30;container=1;collapsible=1;childLayout=tableLayout;fixedRows=1;rowLines=0;fontStyle=1;align=center;resizeLast=1;" vertex="1" collapsed="1" parent="1">
          <mxGeometry x="-120" width="80" height="30" as="geometry">
            <mxRectangle x="160" y="-20" width="180" height="290" as="alternateBounds" />
          </mxGeometry>
        </mxCell>
        <mxCell id="5UGPcmuwCr6wUo15yj4Q-2" value="" style="shape=partialRectangle;collapsible=0;dropTarget=0;pointerEvents=0;fillColor=none;top=0;left=0;bottom=1;right=0;points=[[0,0.5],[1,0.5]];portConstraint=eastwest;" vertex="1" parent="5UGPcmuwCr6wUo15yj4Q-1">
          <mxGeometry y="30" width="180" height="30" as="geometry" />
        </mxCell>
        <mxCell id="5UGPcmuwCr6wUo15yj4Q-3" value="PK" style="shape=partialRectangle;connectable=0;fillColor=none;top=0;left=0;bottom=0;right=0;fontStyle=1;overflow=hidden;" vertex="1" parent="5UGPcmuwCr6wUo15yj4Q-2">
          <mxGeometry width="30" height="30" as="geometry">
            <mxRectangle width="30" height="30" as="alternateBounds" />
          </mxGeometry>
        </mxCell>
        <mxCell id="5UGPcmuwCr6wUo15yj4Q-4" value="id" style="shape=partialRectangle;connectable=0;fillColor=none;top=0;left=0;bottom=0;right=0;align=left;spacingLeft=6;fontStyle=5;overflow=hidden;" vertex="1" parent="5UGPcmuwCr6wUo15yj4Q-2">
          <mxGeometry x="30" width="150" height="30" as="geometry">
            <mxRectangle width="150" height="30" as="alternateBounds" />
          </mxGeometry>
        </mxCell>
        <mxCell id="5UGPcmuwCr6wUo15yj4Q-5" value="" style="shape=partialRectangle;collapsible=0;dropTarget=0;pointerEvents=0;fillColor=none;top=0;left=0;bottom=0;right=0;points=[[0,0.5],[1,0.5]];portConstraint=eastwest;" vertex="1" parent="5UGPcmuwCr6wUo15yj4Q-1">
          <mxGeometry y="60" width="180" height="50" as="geometry" />
        </mxCell>
        <mxCell id="5UGPcmuwCr6wUo15yj4Q-6" value="" style="shape=partialRectangle;connectable=0;fillColor=none;top=0;left=0;bottom=0;right=0;editable=1;overflow=hidden;" vertex="1" parent="5UGPcmuwCr6wUo15yj4Q-5">
          <mxGeometry width="30" height="50" as="geometry">
            <mxRectangle width="30" height="50" as="alternateBounds" />
          </mxGeometry>
        </mxCell>
        <mxCell id="5UGPcmuwCr6wUo15yj4Q-7" value="full_name&#xa;    first_name&#xa;    last_name" style="shape=partialRectangle;connectable=0;fillColor=none;top=0;left=0;bottom=0;right=0;align=left;spacingLeft=6;overflow=hidden;" vertex="1" parent="5UGPcmuwCr6wUo15yj4Q-5">
          <mxGeometry x="30" width="150" height="50" as="geometry">
            <mxRectangle width="150" height="50" as="alternateBounds" />
          </mxGeometry>
        </mxCell>
        <mxCell id="5UGPcmuwCr6wUo15yj4Q-8" value="" style="shape=partialRectangle;collapsible=0;dropTarget=0;pointerEvents=0;fillColor=none;top=0;left=0;bottom=0;right=0;points=[[0,0.5],[1,0.5]];portConstraint=eastwest;" vertex="1" parent="5UGPcmuwCr6wUo15yj4Q-1">
          <mxGeometry y="110" width="180" height="70" as="geometry" />
        </mxCell>
        <mxCell id="5UGPcmuwCr6wUo15yj4Q-9" value="" style="shape=partialRectangle;connectable=0;fillColor=none;top=0;left=0;bottom=0;right=0;editable=1;overflow=hidden;" vertex="1" parent="5UGPcmuwCr6wUo15yj4Q-8">
          <mxGeometry width="30" height="70" as="geometry">
            <mxRectangle width="30" height="70" as="alternateBounds" />
          </mxGeometry>
        </mxCell>
        <mxCell id="5UGPcmuwCr6wUo15yj4Q-10" value="address&#xa;    country&#xa;    city&#xa;    street" style="shape=partialRectangle;connectable=0;fillColor=none;top=0;left=0;bottom=0;right=0;align=left;spacingLeft=6;overflow=hidden;" vertex="1" parent="5UGPcmuwCr6wUo15yj4Q-8">
          <mxGeometry x="30" width="150" height="70" as="geometry">
            <mxRectangle width="150" height="70" as="alternateBounds" />
          </mxGeometry>
        </mxCell>
        <mxCell id="5UGPcmuwCr6wUo15yj4Q-11" value="" style="shape=partialRectangle;collapsible=0;dropTarget=0;pointerEvents=0;fillColor=none;top=0;left=0;bottom=0;right=0;points=[[0,0.5],[1,0.5]];portConstraint=eastwest;" vertex="1" parent="5UGPcmuwCr6wUo15yj4Q-1">
          <mxGeometry y="180" width="180" height="40" as="geometry" />
        </mxCell>
        <mxCell id="5UGPcmuwCr6wUo15yj4Q-12" value="" style="shape=partialRectangle;connectable=0;fillColor=none;top=0;left=0;bottom=0;right=0;editable=1;overflow=hidden;" vertex="1" parent="5UGPcmuwCr6wUo15yj4Q-11">
          <mxGeometry width="30" height="40" as="geometry">
            <mxRectangle width="30" height="40" as="alternateBounds" />
          </mxGeometry>
        </mxCell>
        <mxCell id="5UGPcmuwCr6wUo15yj4Q-13" value="date_of_birth&#xa;age()" style="shape=partialRectangle;connectable=0;fillColor=none;top=0;left=0;bottom=0;right=0;align=left;spacingLeft=6;overflow=hidden;" vertex="1" parent="5UGPcmuwCr6wUo15yj4Q-11">
          <mxGeometry x="30" width="150" height="40" as="geometry">
            <mxRectangle width="150" height="40" as="alternateBounds" />
          </mxGeometry>
        </mxCell>
        <mxCell id="5UGPcmuwCr6wUo15yj4Q-14" value="" style="shape=partialRectangle;collapsible=0;dropTarget=0;pointerEvents=0;fillColor=none;top=0;left=0;bottom=0;right=0;points=[[0,0.5],[1,0.5]];portConstraint=eastwest;startSize=30;" vertex="1" parent="5UGPcmuwCr6wUo15yj4Q-1">
          <mxGeometry y="220" width="180" height="30" as="geometry" />
        </mxCell>
        <mxCell id="5UGPcmuwCr6wUo15yj4Q-15" value="" style="shape=partialRectangle;connectable=0;fillColor=none;top=0;left=0;bottom=0;right=0;editable=1;overflow=hidden;startSize=30;" vertex="1" parent="5UGPcmuwCr6wUo15yj4Q-14">
          <mxGeometry width="30" height="30" as="geometry">
            <mxRectangle width="30" height="30" as="alternateBounds" />
          </mxGeometry>
        </mxCell>
        <mxCell id="5UGPcmuwCr6wUo15yj4Q-16" value="gender" style="shape=partialRectangle;connectable=0;fillColor=none;top=0;left=0;bottom=0;right=0;align=left;spacingLeft=6;overflow=hidden;startSize=30;" vertex="1" parent="5UGPcmuwCr6wUo15yj4Q-14">
          <mxGeometry x="30" width="150" height="30" as="geometry">
            <mxRectangle width="150" height="30" as="alternateBounds" />
          </mxGeometry>
        </mxCell>
        <mxCell id="5UGPcmuwCr6wUo15yj4Q-17" value="" style="shape=partialRectangle;collapsible=0;dropTarget=0;pointerEvents=0;fillColor=none;top=0;left=0;bottom=0;right=0;points=[[0,0.5],[1,0.5]];portConstraint=eastwest;startSize=30;" vertex="1" parent="5UGPcmuwCr6wUo15yj4Q-1">
          <mxGeometry y="250" width="180" height="30" as="geometry" />
        </mxCell>
        <mxCell id="5UGPcmuwCr6wUo15yj4Q-18" value="" style="shape=partialRectangle;connectable=0;fillColor=none;top=0;left=0;bottom=0;right=0;editable=1;overflow=hidden;startSize=30;" vertex="1" parent="5UGPcmuwCr6wUo15yj4Q-17">
          <mxGeometry width="30" height="30" as="geometry">
            <mxRectangle width="30" height="30" as="alternateBounds" />
          </mxGeometry>
        </mxCell>
        <mxCell id="5UGPcmuwCr6wUo15yj4Q-19" value="{phone_number}" style="shape=partialRectangle;connectable=0;fillColor=none;top=0;left=0;bottom=0;right=0;align=left;spacingLeft=6;overflow=hidden;startSize=30;" vertex="1" parent="5UGPcmuwCr6wUo15yj4Q-17">
          <mxGeometry x="30" width="150" height="30" as="geometry">
            <mxRectangle width="150" height="30" as="alternateBounds" />
          </mxGeometry>
        </mxCell>
        <mxCell id="5UGPcmuwCr6wUo15yj4Q-20" value="Course" style="shape=table;startSize=30;container=1;collapsible=1;childLayout=tableLayout;fixedRows=1;rowLines=0;fontStyle=1;align=center;resizeLast=1;" vertex="1" collapsed="1" parent="1">
          <mxGeometry x="240" y="-12.5" width="70" height="30" as="geometry">
            <mxRectangle x="240" y="270" width="180" height="160" as="alternateBounds" />
          </mxGeometry>
        </mxCell>
        <mxCell id="5UGPcmuwCr6wUo15yj4Q-21" value="" style="shape=partialRectangle;collapsible=0;dropTarget=0;pointerEvents=0;fillColor=none;top=0;left=0;bottom=1;right=0;points=[[0,0.5],[1,0.5]];portConstraint=eastwest;startSize=30;" vertex="1" parent="5UGPcmuwCr6wUo15yj4Q-20">
          <mxGeometry y="30" width="180" height="30" as="geometry" />
        </mxCell>
        <mxCell id="5UGPcmuwCr6wUo15yj4Q-22" value="PK" style="shape=partialRectangle;connectable=0;fillColor=none;top=0;left=0;bottom=0;right=0;fontStyle=1;overflow=hidden;startSize=30;" vertex="1" parent="5UGPcmuwCr6wUo15yj4Q-21">
          <mxGeometry width="30" height="30" as="geometry">
            <mxRectangle width="30" height="30" as="alternateBounds" />
          </mxGeometry>
        </mxCell>
        <mxCell id="5UGPcmuwCr6wUo15yj4Q-23" value="course_id" style="shape=partialRectangle;connectable=0;fillColor=none;top=0;left=0;bottom=0;right=0;align=left;spacingLeft=6;fontStyle=5;overflow=hidden;startSize=30;" vertex="1" parent="5UGPcmuwCr6wUo15yj4Q-21">
          <mxGeometry x="30" width="150" height="30" as="geometry">
            <mxRectangle width="150" height="30" as="alternateBounds" />
          </mxGeometry>
        </mxCell>
        <mxCell id="5UGPcmuwCr6wUo15yj4Q-24" value="" style="shape=partialRectangle;collapsible=0;dropTarget=0;pointerEvents=0;fillColor=none;top=0;left=0;bottom=0;right=0;points=[[0,0.5],[1,0.5]];portConstraint=eastwest;startSize=30;" vertex="1" parent="5UGPcmuwCr6wUo15yj4Q-20">
          <mxGeometry y="60" width="180" height="30" as="geometry" />
        </mxCell>
        <mxCell id="5UGPcmuwCr6wUo15yj4Q-25" value="" style="shape=partialRectangle;connectable=0;fillColor=none;top=0;left=0;bottom=0;right=0;editable=1;overflow=hidden;startSize=30;" vertex="1" parent="5UGPcmuwCr6wUo15yj4Q-24">
          <mxGeometry width="30" height="30" as="geometry">
            <mxRectangle width="30" height="30" as="alternateBounds" />
          </mxGeometry>
        </mxCell>
        <mxCell id="5UGPcmuwCr6wUo15yj4Q-26" value="course_name" style="shape=partialRectangle;connectable=0;fillColor=none;top=0;left=0;bottom=0;right=0;align=left;spacingLeft=6;overflow=hidden;startSize=30;" vertex="1" parent="5UGPcmuwCr6wUo15yj4Q-24">
          <mxGeometry x="30" width="150" height="30" as="geometry">
            <mxRectangle width="150" height="30" as="alternateBounds" />
          </mxGeometry>
        </mxCell>
        <mxCell id="5UGPcmuwCr6wUo15yj4Q-27" value="" style="shape=partialRectangle;collapsible=0;dropTarget=0;pointerEvents=0;fillColor=none;top=0;left=0;bottom=0;right=0;points=[[0,0.5],[1,0.5]];portConstraint=eastwest;startSize=30;" vertex="1" parent="5UGPcmuwCr6wUo15yj4Q-20">
          <mxGeometry y="90" width="180" height="30" as="geometry" />
        </mxCell>
        <mxCell id="5UGPcmuwCr6wUo15yj4Q-28" value="" style="shape=partialRectangle;connectable=0;fillColor=none;top=0;left=0;bottom=0;right=0;editable=1;overflow=hidden;startSize=30;" vertex="1" parent="5UGPcmuwCr6wUo15yj4Q-27">
          <mxGeometry width="30" height="30" as="geometry">
            <mxRectangle width="30" height="30" as="alternateBounds" />
          </mxGeometry>
        </mxCell>
        <mxCell id="5UGPcmuwCr6wUo15yj4Q-29" value="credits" style="shape=partialRectangle;connectable=0;fillColor=none;top=0;left=0;bottom=0;right=0;align=left;spacingLeft=6;overflow=hidden;startSize=30;" vertex="1" parent="5UGPcmuwCr6wUo15yj4Q-27">
          <mxGeometry x="30" width="150" height="30" as="geometry">
            <mxRectangle width="150" height="30" as="alternateBounds" />
          </mxGeometry>
        </mxCell>
        <mxCell id="5UGPcmuwCr6wUo15yj4Q-30" value="" style="shape=partialRectangle;collapsible=0;dropTarget=0;pointerEvents=0;fillColor=none;top=0;left=0;bottom=0;right=0;points=[[0,0.5],[1,0.5]];portConstraint=eastwest;startSize=30;" vertex="1" parent="5UGPcmuwCr6wUo15yj4Q-20">
          <mxGeometry y="120" width="180" height="30" as="geometry" />
        </mxCell>
        <mxCell id="5UGPcmuwCr6wUo15yj4Q-31" value="" style="shape=partialRectangle;connectable=0;fillColor=none;top=0;left=0;bottom=0;right=0;editable=1;overflow=hidden;startSize=30;" vertex="1" parent="5UGPcmuwCr6wUo15yj4Q-30">
          <mxGeometry width="30" height="30" as="geometry">
            <mxRectangle width="30" height="30" as="alternateBounds" />
          </mxGeometry>
        </mxCell>
        <mxCell id="5UGPcmuwCr6wUo15yj4Q-32" value="dept_name" style="shape=partialRectangle;connectable=0;fillColor=none;top=0;left=0;bottom=0;right=0;align=left;spacingLeft=6;overflow=hidden;startSize=30;" vertex="1" parent="5UGPcmuwCr6wUo15yj4Q-30">
          <mxGeometry x="30" width="150" height="30" as="geometry">
            <mxRectangle width="150" height="30" as="alternateBounds" />
          </mxGeometry>
        </mxCell>
        <mxCell id="5UGPcmuwCr6wUo15yj4Q-33" value="Dormitory" style="shape=table;startSize=30;container=1;collapsible=1;childLayout=tableLayout;fixedRows=1;rowLines=0;fontStyle=1;align=center;resizeLast=1;" vertex="1" collapsed="1" parent="1">
          <mxGeometry x="-390" y="-60" width="90" height="30" as="geometry">
            <mxRectangle x="240" y="470" width="180" height="160" as="alternateBounds" />
          </mxGeometry>
        </mxCell>
        <mxCell id="5UGPcmuwCr6wUo15yj4Q-34" value="" style="shape=partialRectangle;collapsible=0;dropTarget=0;pointerEvents=0;fillColor=none;top=0;left=0;bottom=1;right=0;points=[[0,0.5],[1,0.5]];portConstraint=eastwest;startSize=30;" vertex="1" parent="5UGPcmuwCr6wUo15yj4Q-33">
          <mxGeometry y="30" width="180" height="30" as="geometry" />
        </mxCell>
        <mxCell id="5UGPcmuwCr6wUo15yj4Q-35" value="PK" style="shape=partialRectangle;connectable=0;fillColor=none;top=0;left=0;bottom=0;right=0;fontStyle=1;overflow=hidden;startSize=30;" vertex="1" parent="5UGPcmuwCr6wUo15yj4Q-34">
          <mxGeometry width="30" height="30" as="geometry">
            <mxRectangle width="30" height="30" as="alternateBounds" />
          </mxGeometry>
        </mxCell>
        <mxCell id="5UGPcmuwCr6wUo15yj4Q-36" value="id" style="shape=partialRectangle;connectable=0;fillColor=none;top=0;left=0;bottom=0;right=0;align=left;spacingLeft=6;fontStyle=5;overflow=hidden;startSize=30;" vertex="1" parent="5UGPcmuwCr6wUo15yj4Q-34">
          <mxGeometry x="30" width="150" height="30" as="geometry">
            <mxRectangle width="150" height="30" as="alternateBounds" />
          </mxGeometry>
        </mxCell>
        <mxCell id="5UGPcmuwCr6wUo15yj4Q-37" value="" style="shape=partialRectangle;collapsible=0;dropTarget=0;pointerEvents=0;fillColor=none;top=0;left=0;bottom=0;right=0;points=[[0,0.5],[1,0.5]];portConstraint=eastwest;startSize=30;" vertex="1" parent="5UGPcmuwCr6wUo15yj4Q-33">
          <mxGeometry y="60" width="180" height="30" as="geometry" />
        </mxCell>
        <mxCell id="5UGPcmuwCr6wUo15yj4Q-38" value="" style="shape=partialRectangle;connectable=0;fillColor=none;top=0;left=0;bottom=0;right=0;editable=1;overflow=hidden;startSize=30;" vertex="1" parent="5UGPcmuwCr6wUo15yj4Q-37">
          <mxGeometry width="30" height="30" as="geometry">
            <mxRectangle width="30" height="30" as="alternateBounds" />
          </mxGeometry>
        </mxCell>
        <mxCell id="5UGPcmuwCr6wUo15yj4Q-39" value="location" style="shape=partialRectangle;connectable=0;fillColor=none;top=0;left=0;bottom=0;right=0;align=left;spacingLeft=6;overflow=hidden;startSize=30;" vertex="1" parent="5UGPcmuwCr6wUo15yj4Q-37">
          <mxGeometry x="30" width="150" height="30" as="geometry">
            <mxRectangle width="150" height="30" as="alternateBounds" />
          </mxGeometry>
        </mxCell>
        <mxCell id="5UGPcmuwCr6wUo15yj4Q-40" value="" style="shape=partialRectangle;collapsible=0;dropTarget=0;pointerEvents=0;fillColor=none;top=0;left=0;bottom=0;right=0;points=[[0,0.5],[1,0.5]];portConstraint=eastwest;startSize=30;" vertex="1" parent="5UGPcmuwCr6wUo15yj4Q-33">
          <mxGeometry y="90" width="180" height="30" as="geometry" />
        </mxCell>
        <mxCell id="5UGPcmuwCr6wUo15yj4Q-41" value="" style="shape=partialRectangle;connectable=0;fillColor=none;top=0;left=0;bottom=0;right=0;editable=1;overflow=hidden;startSize=30;" vertex="1" parent="5UGPcmuwCr6wUo15yj4Q-40">
          <mxGeometry width="30" height="30" as="geometry">
            <mxRectangle width="30" height="30" as="alternateBounds" />
          </mxGeometry>
        </mxCell>
        <mxCell id="5UGPcmuwCr6wUo15yj4Q-42" value="capacity" style="shape=partialRectangle;connectable=0;fillColor=none;top=0;left=0;bottom=0;right=0;align=left;spacingLeft=6;overflow=hidden;startSize=30;" vertex="1" parent="5UGPcmuwCr6wUo15yj4Q-40">
          <mxGeometry x="30" width="150" height="30" as="geometry">
            <mxRectangle width="150" height="30" as="alternateBounds" />
          </mxGeometry>
        </mxCell>
        <mxCell id="5UGPcmuwCr6wUo15yj4Q-43" value="" style="shape=partialRectangle;collapsible=0;dropTarget=0;pointerEvents=0;fillColor=none;top=0;left=0;bottom=0;right=0;points=[[0,0.5],[1,0.5]];portConstraint=eastwest;startSize=30;" vertex="1" parent="5UGPcmuwCr6wUo15yj4Q-33">
          <mxGeometry y="120" width="180" height="30" as="geometry" />
        </mxCell>
        <mxCell id="5UGPcmuwCr6wUo15yj4Q-44" value="" style="shape=partialRectangle;connectable=0;fillColor=none;top=0;left=0;bottom=0;right=0;editable=1;overflow=hidden;startSize=30;" vertex="1" parent="5UGPcmuwCr6wUo15yj4Q-43">
          <mxGeometry width="30" height="30" as="geometry">
            <mxRectangle width="30" height="30" as="alternateBounds" />
          </mxGeometry>
        </mxCell>
        <mxCell id="5UGPcmuwCr6wUo15yj4Q-45" value="{room_types}" style="shape=partialRectangle;connectable=0;fillColor=none;top=0;left=0;bottom=0;right=0;align=left;spacingLeft=6;overflow=hidden;startSize=30;" vertex="1" parent="5UGPcmuwCr6wUo15yj4Q-43">
          <mxGeometry x="30" width="150" height="30" as="geometry">
            <mxRectangle width="150" height="30" as="alternateBounds" />
          </mxGeometry>
        </mxCell>
        <mxCell id="5UGPcmuwCr6wUo15yj4Q-46" value="Office of the Registrar" style="shape=table;startSize=30;container=1;collapsible=1;childLayout=tableLayout;fixedRows=1;rowLines=0;fontStyle=1;align=center;resizeLast=1;" vertex="1" collapsed="1" parent="1">
          <mxGeometry x="5" y="-120" width="160" height="30" as="geometry">
            <mxRectangle x="-10" y="580" width="180" height="180" as="alternateBounds" />
          </mxGeometry>
        </mxCell>
        <mxCell id="5UGPcmuwCr6wUo15yj4Q-47" value="" style="shape=partialRectangle;collapsible=0;dropTarget=0;pointerEvents=0;fillColor=none;top=0;left=0;bottom=1;right=0;points=[[0,0.5],[1,0.5]];portConstraint=eastwest;startSize=30;" vertex="1" parent="5UGPcmuwCr6wUo15yj4Q-46">
          <mxGeometry y="30" width="180" height="30" as="geometry" />
        </mxCell>
        <mxCell id="5UGPcmuwCr6wUo15yj4Q-48" value="PK" style="shape=partialRectangle;connectable=0;fillColor=none;top=0;left=0;bottom=0;right=0;fontStyle=1;overflow=hidden;startSize=30;" vertex="1" parent="5UGPcmuwCr6wUo15yj4Q-47">
          <mxGeometry width="30" height="30" as="geometry">
            <mxRectangle width="30" height="30" as="alternateBounds" />
          </mxGeometry>
        </mxCell>
        <mxCell id="5UGPcmuwCr6wUo15yj4Q-49" value="id" style="shape=partialRectangle;connectable=0;fillColor=none;top=0;left=0;bottom=0;right=0;align=left;spacingLeft=6;fontStyle=5;overflow=hidden;startSize=30;" vertex="1" parent="5UGPcmuwCr6wUo15yj4Q-47">
          <mxGeometry x="30" width="150" height="30" as="geometry">
            <mxRectangle width="150" height="30" as="alternateBounds" />
          </mxGeometry>
        </mxCell>
        <mxCell id="5UGPcmuwCr6wUo15yj4Q-50" value="" style="shape=partialRectangle;collapsible=0;dropTarget=0;pointerEvents=0;fillColor=none;top=0;left=0;bottom=0;right=0;points=[[0,0.5],[1,0.5]];portConstraint=eastwest;startSize=30;" vertex="1" parent="5UGPcmuwCr6wUo15yj4Q-46">
          <mxGeometry y="60" width="180" height="50" as="geometry" />
        </mxCell>
        <mxCell id="5UGPcmuwCr6wUo15yj4Q-51" value="" style="shape=partialRectangle;connectable=0;fillColor=none;top=0;left=0;bottom=0;right=0;editable=1;overflow=hidden;startSize=30;" vertex="1" parent="5UGPcmuwCr6wUo15yj4Q-50">
          <mxGeometry width="30" height="50" as="geometry">
            <mxRectangle width="30" height="50" as="alternateBounds" />
          </mxGeometry>
        </mxCell>
        <mxCell id="5UGPcmuwCr6wUo15yj4Q-52" value="full_name&#xa;    first_name&#xa;    last_name" style="shape=partialRectangle;connectable=0;fillColor=none;top=0;left=0;bottom=0;right=0;align=left;spacingLeft=6;overflow=hidden;startSize=30;" vertex="1" parent="5UGPcmuwCr6wUo15yj4Q-50">
          <mxGeometry x="30" width="150" height="50" as="geometry">
            <mxRectangle width="150" height="50" as="alternateBounds" />
          </mxGeometry>
        </mxCell>
        <mxCell id="5UGPcmuwCr6wUo15yj4Q-53" value="" style="shape=partialRectangle;collapsible=0;dropTarget=0;pointerEvents=0;fillColor=none;top=0;left=0;bottom=0;right=0;points=[[0,0.5],[1,0.5]];portConstraint=eastwest;startSize=30;" vertex="1" parent="5UGPcmuwCr6wUo15yj4Q-46">
          <mxGeometry y="110" width="180" height="30" as="geometry" />
        </mxCell>
        <mxCell id="5UGPcmuwCr6wUo15yj4Q-54" value="" style="shape=partialRectangle;connectable=0;fillColor=none;top=0;left=0;bottom=0;right=0;editable=1;overflow=hidden;startSize=30;" vertex="1" parent="5UGPcmuwCr6wUo15yj4Q-53">
          <mxGeometry width="30" height="30" as="geometry">
            <mxRectangle width="30" height="30" as="alternateBounds" />
          </mxGeometry>
        </mxCell>
        <mxCell id="5UGPcmuwCr6wUo15yj4Q-55" value="disciplines" style="shape=partialRectangle;connectable=0;fillColor=none;top=0;left=0;bottom=0;right=0;align=left;spacingLeft=6;overflow=hidden;startSize=30;" vertex="1" parent="5UGPcmuwCr6wUo15yj4Q-53">
          <mxGeometry x="30" width="150" height="30" as="geometry">
            <mxRectangle width="150" height="30" as="alternateBounds" />
          </mxGeometry>
        </mxCell>
        <mxCell id="5UGPcmuwCr6wUo15yj4Q-56" value="" style="shape=partialRectangle;collapsible=0;dropTarget=0;pointerEvents=0;fillColor=none;top=0;left=0;bottom=0;right=0;points=[[0,0.5],[1,0.5]];portConstraint=eastwest;startSize=30;" vertex="1" parent="5UGPcmuwCr6wUo15yj4Q-46">
          <mxGeometry y="140" width="180" height="30" as="geometry" />
        </mxCell>
        <mxCell id="5UGPcmuwCr6wUo15yj4Q-57" value="" style="shape=partialRectangle;connectable=0;fillColor=none;top=0;left=0;bottom=0;right=0;editable=1;overflow=hidden;startSize=30;" vertex="1" parent="5UGPcmuwCr6wUo15yj4Q-56">
          <mxGeometry width="30" height="30" as="geometry">
            <mxRectangle width="30" height="30" as="alternateBounds" />
          </mxGeometry>
        </mxCell>
        <mxCell id="5UGPcmuwCr6wUo15yj4Q-58" value="{phone_number}" style="shape=partialRectangle;connectable=0;fillColor=none;top=0;left=0;bottom=0;right=0;align=left;spacingLeft=6;overflow=hidden;startSize=30;" vertex="1" parent="5UGPcmuwCr6wUo15yj4Q-56">
          <mxGeometry x="30" width="150" height="30" as="geometry">
            <mxRectangle width="150" height="30" as="alternateBounds" />
          </mxGeometry>
        </mxCell>
        <mxCell id="5UGPcmuwCr6wUo15yj4Q-59" value="Teacher" style="shape=table;startSize=30;container=1;collapsible=1;childLayout=tableLayout;fixedRows=1;rowLines=0;fontStyle=1;align=center;resizeLast=1;" vertex="1" collapsed="1" parent="1">
          <mxGeometry x="235" y="185" width="80" height="30" as="geometry">
            <mxRectangle x="-210" y="50" width="180" height="160" as="alternateBounds" />
          </mxGeometry>
        </mxCell>
        <mxCell id="5UGPcmuwCr6wUo15yj4Q-60" value="" style="shape=partialRectangle;collapsible=0;dropTarget=0;pointerEvents=0;fillColor=none;top=0;left=0;bottom=1;right=0;points=[[0,0.5],[1,0.5]];portConstraint=eastwest;startSize=30;" vertex="1" parent="5UGPcmuwCr6wUo15yj4Q-59">
          <mxGeometry y="30" width="180" height="30" as="geometry" />
        </mxCell>
        <mxCell id="5UGPcmuwCr6wUo15yj4Q-61" value="PK" style="shape=partialRectangle;connectable=0;fillColor=none;top=0;left=0;bottom=0;right=0;fontStyle=1;overflow=hidden;startSize=30;" vertex="1" parent="5UGPcmuwCr6wUo15yj4Q-60">
          <mxGeometry width="30" height="30" as="geometry">
            <mxRectangle width="30" height="30" as="alternateBounds" />
          </mxGeometry>
        </mxCell>
        <mxCell id="5UGPcmuwCr6wUo15yj4Q-62" value="teacher_id" style="shape=partialRectangle;connectable=0;fillColor=none;top=0;left=0;bottom=0;right=0;align=left;spacingLeft=6;fontStyle=5;overflow=hidden;startSize=30;" vertex="1" parent="5UGPcmuwCr6wUo15yj4Q-60">
          <mxGeometry x="30" width="150" height="30" as="geometry">
            <mxRectangle width="150" height="30" as="alternateBounds" />
          </mxGeometry>
        </mxCell>
        <mxCell id="5UGPcmuwCr6wUo15yj4Q-63" value="" style="shape=partialRectangle;collapsible=0;dropTarget=0;pointerEvents=0;fillColor=none;top=0;left=0;bottom=0;right=0;points=[[0,0.5],[1,0.5]];portConstraint=eastwest;startSize=30;" vertex="1" parent="5UGPcmuwCr6wUo15yj4Q-59">
          <mxGeometry y="60" width="180" height="60" as="geometry" />
        </mxCell>
        <mxCell id="5UGPcmuwCr6wUo15yj4Q-64" value="" style="shape=partialRectangle;connectable=0;fillColor=none;top=0;left=0;bottom=0;right=0;editable=1;overflow=hidden;startSize=30;" vertex="1" parent="5UGPcmuwCr6wUo15yj4Q-63">
          <mxGeometry width="30" height="60" as="geometry">
            <mxRectangle width="30" height="60" as="alternateBounds" />
          </mxGeometry>
        </mxCell>
        <mxCell id="5UGPcmuwCr6wUo15yj4Q-65" value="full_name&#xa;    first_name&#xa;    last_name" style="shape=partialRectangle;connectable=0;fillColor=none;top=0;left=0;bottom=0;right=0;align=left;spacingLeft=6;overflow=hidden;startSize=30;" vertex="1" parent="5UGPcmuwCr6wUo15yj4Q-63">
          <mxGeometry x="30" width="150" height="60" as="geometry">
            <mxRectangle width="150" height="60" as="alternateBounds" />
          </mxGeometry>
        </mxCell>
        <mxCell id="5UGPcmuwCr6wUo15yj4Q-66" value="" style="shape=partialRectangle;collapsible=0;dropTarget=0;pointerEvents=0;fillColor=none;top=0;left=0;bottom=0;right=0;points=[[0,0.5],[1,0.5]];portConstraint=eastwest;startSize=30;" vertex="1" parent="5UGPcmuwCr6wUo15yj4Q-59">
          <mxGeometry y="120" width="180" height="30" as="geometry" />
        </mxCell>
        <mxCell id="5UGPcmuwCr6wUo15yj4Q-67" value="" style="shape=partialRectangle;connectable=0;fillColor=none;top=0;left=0;bottom=0;right=0;editable=1;overflow=hidden;startSize=30;" vertex="1" parent="5UGPcmuwCr6wUo15yj4Q-66">
          <mxGeometry width="30" height="30" as="geometry">
            <mxRectangle width="30" height="30" as="alternateBounds" />
          </mxGeometry>
        </mxCell>
        <mxCell id="5UGPcmuwCr6wUo15yj4Q-68" value="experience_years" style="shape=partialRectangle;connectable=0;fillColor=none;top=0;left=0;bottom=0;right=0;align=left;spacingLeft=6;overflow=hidden;startSize=30;" vertex="1" parent="5UGPcmuwCr6wUo15yj4Q-66">
          <mxGeometry x="30" width="150" height="30" as="geometry">
            <mxRectangle width="150" height="30" as="alternateBounds" />
          </mxGeometry>
        </mxCell>
        <mxCell id="5UGPcmuwCr6wUo15yj4Q-69" value="University" style="shape=table;startSize=30;container=1;collapsible=1;childLayout=tableLayout;fixedRows=1;rowLines=0;fontStyle=1;align=center;resizeLast=1;" vertex="1" collapsed="1" parent="1">
          <mxGeometry x="-125" y="185" width="90" height="30" as="geometry">
            <mxRectangle x="-580" y="180" width="180" height="220" as="alternateBounds" />
          </mxGeometry>
        </mxCell>
        <mxCell id="5UGPcmuwCr6wUo15yj4Q-70" value="" style="shape=partialRectangle;collapsible=0;dropTarget=0;pointerEvents=0;fillColor=none;top=0;left=0;bottom=1;right=0;points=[[0,0.5],[1,0.5]];portConstraint=eastwest;startSize=30;" vertex="1" parent="5UGPcmuwCr6wUo15yj4Q-69">
          <mxGeometry y="30" width="180" height="30" as="geometry" />
        </mxCell>
        <mxCell id="5UGPcmuwCr6wUo15yj4Q-71" value="PK" style="shape=partialRectangle;connectable=0;fillColor=none;top=0;left=0;bottom=0;right=0;fontStyle=1;overflow=hidden;startSize=30;" vertex="1" parent="5UGPcmuwCr6wUo15yj4Q-70">
          <mxGeometry width="30" height="30" as="geometry">
            <mxRectangle width="30" height="30" as="alternateBounds" />
          </mxGeometry>
        </mxCell>
        <mxCell id="5UGPcmuwCr6wUo15yj4Q-72" value="id" style="shape=partialRectangle;connectable=0;fillColor=none;top=0;left=0;bottom=0;right=0;align=left;spacingLeft=6;fontStyle=5;overflow=hidden;startSize=30;" vertex="1" parent="5UGPcmuwCr6wUo15yj4Q-70">
          <mxGeometry x="30" width="150" height="30" as="geometry">
            <mxRectangle width="150" height="30" as="alternateBounds" />
          </mxGeometry>
        </mxCell>
        <mxCell id="5UGPcmuwCr6wUo15yj4Q-73" value="" style="shape=partialRectangle;collapsible=0;dropTarget=0;pointerEvents=0;fillColor=none;top=0;left=0;bottom=0;right=0;points=[[0,0.5],[1,0.5]];portConstraint=eastwest;startSize=30;" vertex="1" parent="5UGPcmuwCr6wUo15yj4Q-69">
          <mxGeometry y="60" width="180" height="30" as="geometry" />
        </mxCell>
        <mxCell id="5UGPcmuwCr6wUo15yj4Q-74" value="" style="shape=partialRectangle;connectable=0;fillColor=none;top=0;left=0;bottom=0;right=0;editable=1;overflow=hidden;startSize=30;" vertex="1" parent="5UGPcmuwCr6wUo15yj4Q-73">
          <mxGeometry width="30" height="30" as="geometry">
            <mxRectangle width="30" height="30" as="alternateBounds" />
          </mxGeometry>
        </mxCell>
        <mxCell id="5UGPcmuwCr6wUo15yj4Q-75" value="name" style="shape=partialRectangle;connectable=0;fillColor=none;top=0;left=0;bottom=0;right=0;align=left;spacingLeft=6;overflow=hidden;startSize=30;" vertex="1" parent="5UGPcmuwCr6wUo15yj4Q-73">
          <mxGeometry x="30" width="150" height="30" as="geometry">
            <mxRectangle width="150" height="30" as="alternateBounds" />
          </mxGeometry>
        </mxCell>
        <mxCell id="5UGPcmuwCr6wUo15yj4Q-76" value="" style="shape=partialRectangle;collapsible=0;dropTarget=0;pointerEvents=0;fillColor=none;top=0;left=0;bottom=0;right=0;points=[[0,0.5],[1,0.5]];portConstraint=eastwest;startSize=30;" vertex="1" parent="5UGPcmuwCr6wUo15yj4Q-69">
          <mxGeometry y="90" width="180" height="70" as="geometry" />
        </mxCell>
        <mxCell id="5UGPcmuwCr6wUo15yj4Q-77" value="" style="shape=partialRectangle;connectable=0;fillColor=none;top=0;left=0;bottom=0;right=0;editable=1;overflow=hidden;startSize=30;" vertex="1" parent="5UGPcmuwCr6wUo15yj4Q-76">
          <mxGeometry width="30" height="70" as="geometry">
            <mxRectangle width="30" height="70" as="alternateBounds" />
          </mxGeometry>
        </mxCell>
        <mxCell id="5UGPcmuwCr6wUo15yj4Q-78" value="address&#xa;    country&#xa;    city&#xa;    street" style="shape=partialRectangle;connectable=0;fillColor=none;top=0;left=0;bottom=0;right=0;align=left;spacingLeft=6;overflow=hidden;startSize=30;" vertex="1" parent="5UGPcmuwCr6wUo15yj4Q-76">
          <mxGeometry x="30" width="150" height="70" as="geometry">
            <mxRectangle width="150" height="70" as="alternateBounds" />
          </mxGeometry>
        </mxCell>
        <mxCell id="5UGPcmuwCr6wUo15yj4Q-79" value="" style="shape=partialRectangle;collapsible=0;dropTarget=0;pointerEvents=0;fillColor=none;top=0;left=0;bottom=0;right=0;points=[[0,0.5],[1,0.5]];portConstraint=eastwest;startSize=30;" vertex="1" parent="5UGPcmuwCr6wUo15yj4Q-69">
          <mxGeometry y="160" width="180" height="30" as="geometry" />
        </mxCell>
        <mxCell id="5UGPcmuwCr6wUo15yj4Q-80" value="" style="shape=partialRectangle;connectable=0;fillColor=none;top=0;left=0;bottom=0;right=0;editable=1;overflow=hidden;startSize=30;" vertex="1" parent="5UGPcmuwCr6wUo15yj4Q-79">
          <mxGeometry width="30" height="30" as="geometry">
            <mxRectangle width="30" height="30" as="alternateBounds" />
          </mxGeometry>
        </mxCell>
        <mxCell id="5UGPcmuwCr6wUo15yj4Q-81" value="capacity" style="shape=partialRectangle;connectable=0;fillColor=none;top=0;left=0;bottom=0;right=0;align=left;spacingLeft=6;overflow=hidden;startSize=30;" vertex="1" parent="5UGPcmuwCr6wUo15yj4Q-79">
          <mxGeometry x="30" width="150" height="30" as="geometry">
            <mxRectangle width="150" height="30" as="alternateBounds" />
          </mxGeometry>
        </mxCell>
        <mxCell id="5UGPcmuwCr6wUo15yj4Q-82" value="" style="shape=partialRectangle;collapsible=0;dropTarget=0;pointerEvents=0;fillColor=none;top=0;left=0;bottom=0;right=0;points=[[0,0.5],[1,0.5]];portConstraint=eastwest;startSize=30;" vertex="1" parent="5UGPcmuwCr6wUo15yj4Q-69">
          <mxGeometry y="190" width="180" height="30" as="geometry" />
        </mxCell>
        <mxCell id="5UGPcmuwCr6wUo15yj4Q-83" value="" style="shape=partialRectangle;connectable=0;fillColor=none;top=0;left=0;bottom=0;right=0;editable=1;overflow=hidden;startSize=30;" vertex="1" parent="5UGPcmuwCr6wUo15yj4Q-82">
          <mxGeometry width="30" height="30" as="geometry">
            <mxRectangle width="30" height="30" as="alternateBounds" />
          </mxGeometry>
        </mxCell>
        <mxCell id="5UGPcmuwCr6wUo15yj4Q-84" value="{phone_number}" style="shape=partialRectangle;connectable=0;fillColor=none;top=0;left=0;bottom=0;right=0;align=left;spacingLeft=6;overflow=hidden;startSize=30;" vertex="1" parent="5UGPcmuwCr6wUo15yj4Q-82">
          <mxGeometry x="30" width="150" height="30" as="geometry">
            <mxRectangle width="150" height="30" as="alternateBounds" />
          </mxGeometry>
        </mxCell>
        <mxCell id="5UGPcmuwCr6wUo15yj4Q-85" value="" style="fontSize=12;html=1;endArrow=ERoneToMany;rounded=0;exitX=0.5;exitY=0;exitDx=0;exitDy=0;entryX=0.5;entryY=1;entryDx=0;entryDy=0;startArrow=none;" edge="1" parent="1" source="5UGPcmuwCr6wUo15yj4Q-86" target="5UGPcmuwCr6wUo15yj4Q-1">
          <mxGeometry width="100" height="100" relative="1" as="geometry">
            <mxPoint x="-190" y="220" as="sourcePoint" />
            <mxPoint x="-90" y="120" as="targetPoint" />
          </mxGeometry>
        </mxCell>
        <mxCell id="5UGPcmuwCr6wUo15yj4Q-86" value="has" style="shape=rhombus;perimeter=rhombusPerimeter;whiteSpace=wrap;html=1;align=center;" vertex="1" parent="1">
          <mxGeometry x="-137.5" y="100" width="115" height="50" as="geometry" />
        </mxCell>
        <mxCell id="5UGPcmuwCr6wUo15yj4Q-87" value="" style="fontSize=12;html=1;endArrow=none;rounded=0;exitX=0.5;exitY=0;exitDx=0;exitDy=0;entryX=0.5;entryY=1;entryDx=0;entryDy=0;" edge="1" parent="1" source="5UGPcmuwCr6wUo15yj4Q-69" target="5UGPcmuwCr6wUo15yj4Q-86">
          <mxGeometry width="100" height="100" relative="1" as="geometry">
            <mxPoint x="-85" y="150" as="sourcePoint" />
            <mxPoint x="-85" y="70" as="targetPoint" />
          </mxGeometry>
        </mxCell>
        <mxCell id="5UGPcmuwCr6wUo15yj4Q-88" value="" style="fontSize=12;html=1;endArrow=ERoneToMany;rounded=0;entryX=0.5;entryY=1;entryDx=0;entryDy=0;startArrow=none;exitX=0.5;exitY=0;exitDx=0;exitDy=0;" edge="1" parent="1" source="5UGPcmuwCr6wUo15yj4Q-89" target="5UGPcmuwCr6wUo15yj4Q-20">
          <mxGeometry width="100" height="100" relative="1" as="geometry">
            <mxPoint x="-190" y="220" as="sourcePoint" />
            <mxPoint x="-90" y="120" as="targetPoint" />
          </mxGeometry>
        </mxCell>
        <mxCell id="5UGPcmuwCr6wUo15yj4Q-89" value="teaches" style="shape=rhombus;perimeter=rhombusPerimeter;whiteSpace=wrap;html=1;align=center;rotation=0;" vertex="1" parent="1">
          <mxGeometry x="227.5" y="80" width="95" height="50" as="geometry" />
        </mxCell>
        <mxCell id="5UGPcmuwCr6wUo15yj4Q-90" value="" style="fontSize=12;html=1;endArrow=none;rounded=0;exitX=0.5;exitY=0;exitDx=0;exitDy=0;entryX=0.5;entryY=1;entryDx=0;entryDy=0;" edge="1" parent="1" source="5UGPcmuwCr6wUo15yj4Q-59" target="5UGPcmuwCr6wUo15yj4Q-89">
          <mxGeometry width="100" height="100" relative="1" as="geometry">
            <mxPoint x="-250" y="150" as="sourcePoint" />
            <mxPoint x="-125" y="55" as="targetPoint" />
          </mxGeometry>
        </mxCell>
        <mxCell id="5UGPcmuwCr6wUo15yj4Q-91" value="" style="fontSize=12;html=1;endArrow=ERoneToMany;rounded=0;exitX=1;exitY=0.5;exitDx=0;exitDy=0;startArrow=none;entryX=0;entryY=0.5;entryDx=0;entryDy=0;" edge="1" parent="1" source="5UGPcmuwCr6wUo15yj4Q-92" target="5UGPcmuwCr6wUo15yj4Q-59">
          <mxGeometry width="100" height="100" relative="1" as="geometry">
            <mxPoint x="-190" y="220" as="sourcePoint" />
            <mxPoint x="200" y="195" as="targetPoint" />
          </mxGeometry>
        </mxCell>
        <mxCell id="5UGPcmuwCr6wUo15yj4Q-92" value="works" style="shape=rhombus;perimeter=rhombusPerimeter;whiteSpace=wrap;html=1;align=center;" vertex="1" parent="1">
          <mxGeometry x="20" y="180" width="100" height="40" as="geometry" />
        </mxCell>
        <mxCell id="5UGPcmuwCr6wUo15yj4Q-93" value="" style="fontSize=12;html=1;endArrow=none;rounded=0;exitX=1;exitY=0.5;exitDx=0;exitDy=0;entryX=0;entryY=0.5;entryDx=0;entryDy=0;" edge="1" parent="1" source="5UGPcmuwCr6wUo15yj4Q-69" target="5UGPcmuwCr6wUo15yj4Q-92">
          <mxGeometry width="100" height="100" relative="1" as="geometry">
            <mxPoint x="-125" y="225" as="sourcePoint" />
            <mxPoint x="-300" y="172.5" as="targetPoint" />
          </mxGeometry>
        </mxCell>
        <mxCell id="5UGPcmuwCr6wUo15yj4Q-94" value="" style="fontSize=12;html=1;endArrow=ERoneToMany;rounded=0;exitX=1;exitY=0.5;exitDx=0;exitDy=0;entryX=0.5;entryY=0;entryDx=0;entryDy=0;startArrow=none;edgeStyle=orthogonalEdgeStyle;" edge="1" parent="1" source="5UGPcmuwCr6wUo15yj4Q-95" target="5UGPcmuwCr6wUo15yj4Q-1">
          <mxGeometry width="100" height="100" relative="1" as="geometry">
            <mxPoint x="-270" y="10" as="sourcePoint" />
            <mxPoint x="-70" y="120" as="targetPoint" />
          </mxGeometry>
        </mxCell>
        <mxCell id="5UGPcmuwCr6wUo15yj4Q-95" value="lives" style="shape=rhombus;perimeter=rhombusPerimeter;whiteSpace=wrap;html=1;align=center;" vertex="1" parent="1">
          <mxGeometry x="-240" y="-75" width="120" height="60" as="geometry" />
        </mxCell>
        <mxCell id="5UGPcmuwCr6wUo15yj4Q-96" value="" style="edgeStyle=entityRelationEdgeStyle;fontSize=12;html=1;endArrow=none;rounded=0;exitX=1;exitY=0.5;exitDx=0;exitDy=0;entryX=0;entryY=0.5;entryDx=0;entryDy=0;" edge="1" parent="1" source="5UGPcmuwCr6wUo15yj4Q-33" target="5UGPcmuwCr6wUo15yj4Q-95">
          <mxGeometry width="100" height="100" relative="1" as="geometry">
            <mxPoint x="-340" y="5" as="sourcePoint" />
            <mxPoint x="-120" y="7.5" as="targetPoint" />
          </mxGeometry>
        </mxCell>
        <mxCell id="5UGPcmuwCr6wUo15yj4Q-101" value="" style="fontSize=12;html=1;endArrow=ERoneToMany;rounded=0;entryX=1;entryY=0;entryDx=0;entryDy=0;startArrow=none;exitX=0;exitY=0.5;exitDx=0;exitDy=0;" edge="1" parent="1" source="5UGPcmuwCr6wUo15yj4Q-102" target="5UGPcmuwCr6wUo15yj4Q-1">
          <mxGeometry width="100" height="100" relative="1" as="geometry">
            <mxPoint x="80" y="-50" as="sourcePoint" />
            <mxPoint x="-70" y="20" as="targetPoint" />
          </mxGeometry>
        </mxCell>
        <mxCell id="5UGPcmuwCr6wUo15yj4Q-102" value="registers" style="shape=rhombus;perimeter=rhombusPerimeter;whiteSpace=wrap;html=1;align=center;rotation=0;" vertex="1" parent="1">
          <mxGeometry x="30" y="-20" width="110" height="45" as="geometry" />
        </mxCell>
        <mxCell id="5UGPcmuwCr6wUo15yj4Q-103" value="" style="fontSize=12;html=1;endArrow=none;rounded=0;exitX=0.5;exitY=1;exitDx=0;exitDy=0;entryX=0.5;entryY=0;entryDx=0;entryDy=0;" edge="1" parent="1" source="5UGPcmuwCr6wUo15yj4Q-46" target="5UGPcmuwCr6wUo15yj4Q-102">
          <mxGeometry width="100" height="100" relative="1" as="geometry">
            <mxPoint x="-280" y="25" as="sourcePoint" />
            <mxPoint x="-120" y="15" as="targetPoint" />
          </mxGeometry>
        </mxCell>
        <mxCell id="5UGPcmuwCr6wUo15yj4Q-104" value="" style="fontSize=12;html=1;endArrow=ERoneToMany;rounded=0;entryX=0;entryY=0.5;entryDx=0;entryDy=0;startArrow=none;exitX=1;exitY=0.5;exitDx=0;exitDy=0;edgeStyle=orthogonalEdgeStyle;" edge="1" parent="1" source="5UGPcmuwCr6wUo15yj4Q-102" target="5UGPcmuwCr6wUo15yj4Q-20">
          <mxGeometry width="100" height="100" relative="1" as="geometry">
            <mxPoint x="46.10912703473991" y="-33.60912703473991" as="sourcePoint" />
            <mxPoint x="-30" y="10" as="targetPoint" />
          </mxGeometry>
        </mxCell>
        <mxCell id="5UGPcmuwCr6wUo15yj4Q-105" value="" style="fontSize=12;html=1;endArrow=ERoneToMany;rounded=0;exitX=0;exitY=0.5;exitDx=0;exitDy=0;entryX=1;entryY=1;entryDx=0;entryDy=0;startArrow=none;" edge="1" parent="1" source="5UGPcmuwCr6wUo15yj4Q-106" target="5UGPcmuwCr6wUo15yj4Q-1">
          <mxGeometry width="100" height="100" relative="1" as="geometry">
            <mxPoint x="-20" y="220" as="sourcePoint" />
            <mxPoint x="80" y="120" as="targetPoint" />
          </mxGeometry>
        </mxCell>
        <mxCell id="5UGPcmuwCr6wUo15yj4Q-106" value="advisor" style="shape=rhombus;perimeter=rhombusPerimeter;whiteSpace=wrap;html=1;align=center;rotation=30;" vertex="1" parent="1">
          <mxGeometry x="40" y="80" width="120" height="60" as="geometry" />
        </mxCell>
        <mxCell id="5UGPcmuwCr6wUo15yj4Q-107" value="" style="fontSize=12;html=1;endArrow=none;rounded=0;exitX=0;exitY=0;exitDx=0;exitDy=0;entryX=0.986;entryY=0.516;entryDx=0;entryDy=0;entryPerimeter=0;" edge="1" parent="1" source="5UGPcmuwCr6wUo15yj4Q-59" target="5UGPcmuwCr6wUo15yj4Q-106">
          <mxGeometry width="100" height="100" relative="1" as="geometry">
            <mxPoint x="235" y="185" as="sourcePoint" />
            <mxPoint x="120" y="150" as="targetPoint" />
          </mxGeometry>
        </mxCell>
        <mxCell id="5UGPcmuwCr6wUo15yj4Q-109" value="" style="edgeStyle=orthogonalEdgeStyle;fontSize=12;html=1;endArrow=ERoneToMany;rounded=0;exitX=0.5;exitY=1;exitDx=0;exitDy=0;entryX=1;entryY=0.5;entryDx=0;entryDy=0;" edge="1" parent="1" source="5UGPcmuwCr6wUo15yj4Q-69" target="5UGPcmuwCr6wUo15yj4Q-20">
          <mxGeometry width="100" height="100" relative="1" as="geometry">
            <mxPoint x="-20" y="120" as="sourcePoint" />
            <mxPoint x="330" y="-130" as="targetPoint" />
            <Array as="points">
              <mxPoint x="-80" y="270" />
              <mxPoint x="360" y="270" />
              <mxPoint x="360" y="3" />
            </Array>
          </mxGeometry>
        </mxCell>
        <mxCell id="5UGPcmuwCr6wUo15yj4Q-113" value="offers" style="shape=rhombus;perimeter=rhombusPerimeter;whiteSpace=wrap;html=1;align=center;" vertex="1" parent="1">
          <mxGeometry x="202.5" y="240" width="120" height="60" as="geometry" />
        </mxCell>
      </root>
    </mxGraphModel>
  </diagram>
</mxfile>
